GIL03_xslow1_ik
nRows=3
nColumns=375

# SIMM Motion File Header:
name GIL03_xslow1_ik
datacolumns 375
datarows 3
otherdata 1
range 0.94167000 0.95833000
endheader
time	pelvis_tx	pelvis_ty	pelvis_tz	pelvis_tilt	pelvis_list	pelvis_rotation	hip_flexion_r	hip_adduction_r	hip_rotation_r	knee_angle_r	ankle_angle_r	hip_flexion_l	hip_adduction_l	hip_rotation_l	knee_angle_l	ankle_angle_l	lumbar_extension	lumbar_bending	lumbar_rotation	subtalar_angle_r	mtp_angle_r	subtalar_angle_l	mtp_angle_l	asis_r_px	asis_r_py	asis_r_pz	asis_l_px	asis_l_py	asis_l_pz	midasis_px	midasis_py	midasis_pz	psis_r_px	psis_r_py	psis_r_pz	psis_l_px	psis_l_py	psis_l_pz	hip_r_px	hip_r_py	hip_r_pz	hip_l_px	hip_l_py	hip_l_pz	midhip_px	midhip_py	midhip_pz	epicondLat_r_px	epicondLat_r_py	epicondLat_r_pz	epicondMed_r_px	epicondMed_r_py	epicondMed_r_pz	thighwand_r_px	thighwand_r_py	thighwand_r_pz	upperleg1_r_px	upperleg1_r_py	upperleg1_r_pz	upperleg2_r_px	upperleg2_r_py	upperleg2_r_pz	malleolusLat_r_px	malleolusLat_r_py	malleolusLat_r_pz	malleolusMedv_r_px	malleolusMedv_r_py	malleolusMedv_r_pz	shankwand_r_px	shankwand_r_py	shankwand_r_pz	lowerleg1_r_px	lowerleg1_r_py	lowerleg1_r_pz	knee_r_px	knee_r_py	knee_r_pz	ankle_r_px	ankle_r_py	ankle_r_pz	toe_r_px	toe_r_py	toe_r_pz	epicondLat_l_px	epicondLat_l_py	epicondLat_l_pz	epicondMed_l_px	epicondMed_l_py	epicondMed_l_pz	thighwand_l_px	thighwand_l_py	thighwand_l_pz	upperleg1_l_px	upperleg1_l_py	upperleg1_l_pz	upperleg2_l_px	upperleg2_l_py	upperleg2_l_pz	malleolusLat_l_px	malleolusLat_l_py	malleolusLat_l_pz	malleolusMedv_l_px	malleolusMedv_l_py	malleolusMedv_l_pz	shankwand_l_px	shankwand_l_py	shankwand_l_pz	lowerleg1_l_px	lowerleg1_l_py	lowerleg1_l_pz	knee_l_px	knee_l_py	knee_l_pz	ankle_l_px	ankle_l_py	ankle_l_pz	toe_l_px	toe_l_py	toe_l_pz	subclavicle_r_px	subclavicle_r_py	subclavicle_r_pz	subclavicle_l_px	subclavicle_l_py	subclavicle_l_pz	neck_px	neck_py	neck_pz	sternalnotch_px	sternalnotch_py	sternalnotch_pz	xyphoidprocess_px	xyphoidprocess_py	xyphoidprocess_pz	midhip_tx	midhip_ty	midhip_tz	hip_r_tx	hip_r_ty	hip_r_tz	hip_l_tx	hip_l_ty	hip_l_tz	knee_r_tx	knee_r_ty	knee_r_tz	knee_l_tx	knee_l_ty	knee_l_tz	ankle_r_tx	ankle_r_ty	ankle_r_tz	ankle_l_tx	ankle_l_ty	ankle_l_tz	midasis_tx	midasis_ty	midasis_tz	asis_r_tx	asis_r_ty	asis_r_tz	asis_l_tx	asis_l_ty	asis_l_tz	psis_r_tx	psis_r_ty	psis_r_tz	psis_l_tx	psis_l_ty	psis_l_tz	epicondLat_r_tx	epicondLat_r_ty	epicondLat_r_tz	epicondLat_l_tx	epicondLat_l_ty	epicondLat_l_tz	epicondMed_r_tx	epicondMed_r_ty	epicondMed_r_tz	epicondMed_l_tx	epicondMed_l_ty	epicondMed_l_tz	malleolusLat_r_tx	malleolusLat_r_ty	malleolusLat_r_tz	malleolusLat_l_tx	malleolusLat_l_ty	malleolusLat_l_tz	malleolusMedv_r_tx	malleolusMedv_r_ty	malleolusMedv_r_tz	malleolusMedv_l_tx	malleolusMedv_l_ty	malleolusMedv_l_tz	neck_tx	neck_ty	neck_tz	subclavicle_r_tx	subclavicle_r_ty	subclavicle_r_tz	subclavicle_l_tx	subclavicle_l_ty	subclavicle_l_tz	sternalnotch_tx	sternalnotch_ty	sternalnotch_tz	xyphoidprocess_tx	xyphoidprocess_ty	xyphoidprocess_tz	thighwand_r_tx	thighwand_r_ty	thighwand_r_tz	thighwand_l_tx	thighwand_l_ty	thighwand_l_tz	upperleg1_r_tx	upperleg1_r_ty	upperleg1_r_tz	upperleg1_l_tx	upperleg1_l_ty	upperleg1_l_tz	upperleg2_r_tx	upperleg2_r_ty	upperleg2_r_tz	upperleg2_l_tx	upperleg2_l_ty	upperleg2_l_tz	shankwand_r_tx	shankwand_r_ty	shankwand_r_tz	shankwand_l_tx	shankwand_l_ty	shankwand_l_tz	lowerleg1_r_tx	lowerleg1_r_ty	lowerleg1_r_tz	lowerleg1_l_tx	lowerleg1_l_ty	lowerleg1_l_tz	toe_r_tx	toe_r_ty	toe_r_tz	toe_l_tx	toe_l_ty	toe_l_tz	ground_force_vx	ground_force_vy	ground_force_vz	ground_force_px	ground_force_py	ground_force_pz	ground_force_vx	ground_force_vy	ground_force_vz	ground_force_px	ground_force_py	ground_force_pz	ground_torque_x	ground_torque_y	ground_torque_z	ground_torque_x	ground_torque_y	ground_torque_z	ground_marker_px	ground_marker_py	ground_marker_pz	ground_marker_px	ground_marker_py	ground_marker_pz	ground_marker_px	ground_marker_py	ground_marker_pz	ground_marker_px	ground_marker_py	ground_marker_pz	ground_marker_px	ground_marker_py	ground_marker_pz	ground_marker_px	ground_marker_py	ground_marker_pz	ground_marker_px	ground_marker_py	ground_marker_pz	ground_marker_px	ground_marker_py	ground_marker_pz	ground_marker_px	ground_marker_py	ground_marker_pz	ground_marker_px	ground_marker_py	ground_marker_pz	ground_marker_px	ground_marker_py	ground_marker_pz	ground_marker_px	ground_marker_py	ground_marker_pz	ground_marker_px	ground_marker_py	ground_marker_pz	ground_marker_px	ground_marker_py	ground_marker_pz	ground_marker_px	ground_marker_py	ground_marker_pz	ground_marker_px	ground_marker_py	ground_marker_pz	ground_marker_px	ground_marker_py	ground_marker_pz	ground_marker_px	ground_marker_py	ground_marker_pz	ground_marker_px	ground_marker_py	ground_marker_pz	ground_marker_px	ground_marker_py	ground_marker_pz	ground_marker_px	ground_marker_py	ground_marker_pz	ground_marker_px	ground_marker_py	ground_marker_pz	ground_marker_px	ground_marker_py	ground_marker_pz	ground_marker_px	ground_marker_py	ground_marker_pz	ground_marker_px	ground_marker_py	ground_marker_pz	ground_marker_px	ground_marker_py	ground_marker_pz	ground_marker_px	ground_marker_py	ground_marker_pz	ground_marker_px	ground_marker_py	ground_marker_pz	ground_marker_px	ground_marker_py	ground_marker_pz	ground_marker_px	ground_marker_py	ground_marker_pz	ground_marker_px	ground_marker_py	ground_marker_pz	ground_marker_px	ground_marker_py	ground_marker_pz	ground_marker_px	ground_marker_py	ground_marker_pz	ground_marker_px	ground_marker_py	ground_marker_pz	ground_marker_px	ground_marker_py	ground_marker_pz	ground_marker_px	ground_marker_py	ground_marker_pz	ground_marker_px	ground_marker_py	ground_marker_pz
      0.94167000	      1.85988425	      0.88588038	     -0.24707248	      2.67709634	     -2.74172604	      2.94831534	     12.21952062	      4.78155176	     12.26327273	    -13.90509724	      1.57313361	    -12.38482709	     -4.66671077	     -2.76052611	    -24.54597245	      6.07324143	    -10.70046121	      4.29298278	     -3.67654715	      0.00000000	      0.00000000	      0.00000000	      0.00000000	      1.91312086	      0.89608129	     -0.15717866	      1.88567315	      0.87915710	     -0.35629314	      1.87089262	      0.88636794	     -0.24763935	      1.75091099	      0.93568523	     -0.21551340	      1.74311177	      0.93178381	     -0.26972282	      1.80995676	      0.83473806	     -0.17607190	      1.80348810	      0.82814133	     -0.30736385	      1.80672243	      0.83143970	     -0.24171788	      1.95122686	      0.46542967	     -0.14221505	      1.89863254	      0.44982658	     -0.23702412	      2.01493376	      0.65530237	     -0.23970093	      1.95102075	      0.69146605	     -0.17006822	      1.96162665	      0.60612309	     -0.16741135	      1.90986705	      0.05726826	     -0.14440072	      1.92457197	      0.07073924	     -0.21512253	      1.92597025	      0.18021842	     -0.07545429	      1.91977210	      0.18646896	     -0.11687352	      1.90234920	      0.47169523	     -0.19325656	      1.91086068	      0.07277507	     -0.18565362	      2.03278734	      0.04083082	     -0.16596316	      1.74853580	      0.44740938	     -0.37846421	      1.74025581	      0.43351878	     -0.27035626	      1.90749145	      0.58155651	     -0.31675136	      1.84134870	      0.63962154	     -0.36654916	      1.82455812	      0.55323652	     -0.36257764	      1.49560006	      0.12085383	     -0.35127238	      1.53037163	      0.11244274	     -0.29349742	      1.51799237	      0.24548173	     -0.40501434	      1.54064765	      0.23801912	     -0.36891687	      1.73871804	      0.45770382	     -0.31623403	      1.51358530	      0.12823971	     -0.31021814	      1.59000447	      0.03794447	     -0.37393794	      1.85650818	      1.27628905	     -0.18303135	      1.86183916	      1.27499839	     -0.29210896	      1.75449281	      1.32414556	     -0.23890302	      1.84368424	      1.28379066	     -0.24364717	      1.92906073	      1.13105110	     -0.23641953	      1.81319300	      0.83990300	     -0.23938200	      1.81846000	      0.82296600	     -0.18011600	      1.80171300	      0.81646100	     -0.29620600	      1.91039600	      0.45979300	     -0.20001700	      1.73934900	      0.45974300	     -0.30641900	      1.91664200	      0.06099500	     -0.18956300	      1.50586800	      0.11970400	     -0.31199000	      1.86863600	      0.90042400	     -0.24510000	      1.87452400	      0.90474800	     -0.14513900	      1.86274900	      0.89610100	     -0.34506000	      1.71351500	      0.92717000	     -0.20497000	      1.71025700	      0.92728400	     -0.25978000	      1.93443300	      0.46317400	     -0.15066400	      1.74798300	      0.45977400	     -0.36023100	      1.88247700	      0.45112800	     -0.24131500	      1.73205600	      0.44753700	     -0.26233900	      1.92066600	      0.06206200	     -0.15128900	      1.50953800	      0.11781100	     -0.35026800	      1.92717500	      0.07737800	     -0.22289800	      1.52384500	      0.12968700	     -0.28595400	      1.75947700	      1.33933700	     -0.23746500	      1.85745300	      1.26640900	     -0.18533000	      1.85930000	      1.26297400	     -0.29297700	      1.84369300	      1.27576800	     -0.24495500	      1.89529400	      1.10815700	     -0.23765700	      1.99374000	      0.65916800	     -0.23099100	      1.90070800	      0.60078300	     -0.28712400	      1.92898600	      0.68895800	     -0.15880600	      1.83918000	      0.65532800	     -0.34661100	      1.94146600	      0.60419800	     -0.16202900	      1.82440900	      0.56879000	     -0.34361600	      1.93895100	      0.18659500	     -0.08655900	      1.54888700	      0.23931200	     -0.41725300	      1.92815900	      0.19243600	     -0.12722300	      1.55900400	      0.23907000	     -0.37515500	      2.03525000	      0.04264500	     -0.19809000	      1.59830600	      0.04032600	     -0.29963000	    -22.92337336	    292.88127881	    -14.38845212	      1.92189014	      0.00000000	     -0.18698026	      5.72462687	    115.98630476	     -0.96442045	      1.60708789	      0.00000000	     -0.29329358	      0.00000000	     -0.29711426	      0.00000000	      0.00000000	     -0.24464465	      0.00000000	      1.81319332	      0.83990312	     -0.23938194	      1.81846046	      0.82296568	     -0.18011586	      1.80171275	      0.81646121	     -0.29620564	      1.91039598	      0.45979336	     -0.20001735	      1.73934901	      0.45974290	     -0.30641934	      1.91664195	      0.06099529	     -0.18956299	      1.50586796	      0.11970434	     -0.31199050	      1.86863613	      0.90042430	     -0.24509984	      1.87452352	      0.90474755	     -0.14513928	      1.86274886	      0.89610106	     -0.34506041	      1.71351516	      0.92716974	     -0.20497015	      1.71025670	      0.92728400	     -0.25978005	      1.93443298	      0.46317372	     -0.15066357	      1.74798322	      0.45977414	     -0.36023104	      1.88247681	      0.45112765	     -0.24131471	      1.73205650	      0.44753703	     -0.26233923	      1.92066574	      0.06206166	     -0.15128869	      1.50953794	      0.11781146	     -0.35026839	      1.92717540	      0.07737836	     -0.22289836	      1.52384543	      0.12968707	     -0.28595361	      1.75947750	      1.33933723	     -0.23746473	      1.85745275	      1.26640916	     -0.18532977	      1.85930002	      1.26297355	     -0.29297665	      1.84369266	      1.27576756	     -0.24495542	      1.89529395	      1.10815692	     -0.23765741	      1.99374032	      0.65916753	     -0.23099059	      1.90070844	      0.60078347	     -0.28712398	      1.92898571	      0.68895841	     -0.15880597	      1.83918035	      0.65532780	     -0.34661081	      1.94146585	      0.60419768	     -0.16202942	      1.82440889	      0.56879002	     -0.34361616	      1.93895078	      0.18659495	     -0.08655927	      1.54888725	      0.23931189	     -0.41725296	      1.92815852	      0.19243647	     -0.12722278	      1.55900431	      0.23906986	     -0.37515536	      2.03525019	      0.04264528	     -0.19808969	      1.59830558	      0.04032643	     -0.29963014
      0.95000000	      1.86643137	      0.88634134	     -0.24588771	      2.56329598	     -2.78600491	      2.89291531	     11.95905427	      4.89693997	     11.90534048	    -14.01394015	      1.87094975	    -12.36827567	     -5.04322610	     -3.33270225	    -24.82631992	      5.01230589	    -10.43847827	      4.31416875	     -3.55460231	      0.00000000	      0.00000000	      0.00000000	      0.00000000	      1.91959780	      0.89650450	     -0.15594810	      1.89231633	      0.87948846	     -0.35507759	      1.87744123	      0.88680713	     -0.24644392	      1.75752344	      0.93638040	     -0.21447392	      1.74977085	      0.93245461	     -0.26868827	      1.81633383	      0.83534770	     -0.17489998	      1.80998360	      0.82866783	     -0.30619350	      1.81315871	      0.83200776	     -0.24054674	      1.95482534	      0.46498871	     -0.14103941	      1.90276846	      0.44998854	     -0.23624158	      2.02049703	      0.65466283	     -0.23760371	      1.95636417	      0.69109077	     -0.16831172	      1.96636401	      0.60567020	     -0.16580280	      1.90993462	      0.05714240	     -0.14435014	      1.92523818	      0.07062632	     -0.21494236	      1.92663825	      0.17980878	     -0.07504206	      1.92077733	      0.18619624	     -0.11648948	      1.90636190	      0.47171635	     -0.19240007	      1.91134457	      0.07272264	     -0.18556321	      2.03300044	      0.04027436	     -0.16503969	      1.75384765	      0.44856811	     -0.37971074	      1.74637847	      0.43388195	     -0.27164889	      1.91349875	      0.58199253	     -0.31822681	      1.84707114	      0.64053550	     -0.36707682	      1.83016718	      0.55415040	     -0.36362144	      1.49898094	      0.12335881	     -0.35280957	      1.53415217	      0.11431336	     -0.29537336	      1.52176278	      0.24821636	     -0.40585020	      1.54465328	      0.24035147	     -0.36998729	      1.74456679	      0.45836813	     -0.31733699	      1.51733796	      0.13033691	     -0.31184865	      1.59108246	      0.03834750	     -0.37629265	      1.86238024	      1.27710720	     -0.18202033	      1.86757440	      1.27584808	     -0.29110491	      1.76016691	      1.32470260	     -0.23775306	      1.84945860	      1.28458455	     -0.24261840	      1.93524804	      1.13207023	     -0.23552539	      1.81995200	      0.84073300	     -0.23847600	      1.82480800	      0.82353800	     -0.17898000	      1.80816300	      0.81699100	     -0.29508200	      1.91434600	      0.45985000	     -0.19919900	      1.74510300	      0.46017800	     -0.30762100	      1.91705400	      0.06101800	     -0.18945700	      1.50939600	      0.12158400	     -0.31327800	      1.87519500	      0.90086000	     -0.24396300	      1.88099200	      0.90523700	     -0.14398400	      1.86939800	      0.89648200	     -0.34394300	      1.72013200	      0.92791100	     -0.20412500	      1.71680200	      0.92802300	     -0.25883000	      1.93807200	      0.46293800	     -0.14967600	      1.75332700	      0.46061800	     -0.36149500	      1.88689300	      0.45173200	     -0.24049300	      1.73821700	      0.44755700	     -0.26368200	      1.92089000	      0.06198000	     -0.15116100	      1.51253600	      0.12003800	     -0.35161900	      1.92743500	      0.07734800	     -0.22271600	      1.52763000	      0.13178300	     -0.28751800	      1.76508500	      1.33980700	     -0.23637400	      1.86316900	      1.26706700	     -0.18425100	      1.86517500	      1.26379500	     -0.29192100	      1.84948600	      1.27647400	     -0.24384800	      1.90150000	      1.10899200	     -0.23677100	      1.99934300	      0.65883600	     -0.22911600	      1.90704000	      0.60082500	     -0.28843300	      1.93454900	      0.68903600	     -0.15710300	      1.84501300	      0.65582500	     -0.34701500	      1.94649400	      0.60418800	     -0.16050100	      1.83014400	      0.56941300	     -0.34464500	      1.93992000	      0.18608900	     -0.08614100	      1.55194100	      0.24229600	     -0.41807800	      1.92922800	      0.19216100	     -0.12674600	      1.56238600	      0.24162700	     -0.37617500	      2.03560300	      0.04224400	     -0.19791700	      1.59925700	      0.04038200	     -0.30009600	    -23.37318256	    307.91534773	    -15.65902794	      1.92518665	      0.00000000	     -0.18695581	      4.03364801	     99.43896038	     -1.65905790	      1.60754016	      0.00000000	     -0.29376538	      0.00000000	     -0.32288354	      0.00000000	      0.00000000	     -0.19089084	      0.00000000	      1.81995177	      0.84073305	     -0.23847622	      1.82480776	      0.82353818	     -0.17897959	      1.80816317	      0.81699073	     -0.29508176	      1.91434646	      0.45984992	     -0.19919905	      1.74510276	      0.46017826	     -0.30762136	      1.91705418	      0.06101841	     -0.18945707	      1.50939596	      0.12158386	     -0.31327796	      1.87519503	      0.90085959	     -0.24396332	      1.88099205	      0.90523684	     -0.14398387	      1.86939812	      0.89648241	     -0.34394276	      1.72013235	      0.92791069	     -0.20412526	      1.71680200	      0.92802316	     -0.25883004	      1.93807244	      0.46293786	     -0.14967586	      1.75332677	      0.46061814	     -0.36149549	      1.88689291	      0.45173198	     -0.24049306	      1.73821664	      0.44755661	     -0.26368216	      1.92088974	      0.06197989	     -0.15116069	      1.51253641	      0.12003829	     -0.35161853	      1.92743516	      0.07734773	     -0.22271554	      1.52762961	      0.13178346	     -0.28751841	      1.76508546	      1.33980656	     -0.23637445	      1.86316907	      1.26706660	     -0.18425077	      1.86517477	      1.26379550	     -0.29192054	      1.84948611	      1.27647424	     -0.24384780	      1.90149951	      1.10899222	     -0.23677115	      1.99934340	      0.65883619	     -0.22911640	      1.90703964	      0.60082537	     -0.28843251	      1.93454909	      0.68903637	     -0.15710348	      1.84501338	      0.65582520	     -0.34701529	      1.94649363	      0.60418761	     -0.16050062	      1.83014417	      0.56941277	     -0.34464487	      1.93992043	      0.18608862	     -0.08614097	      1.55194092	      0.24229570	     -0.41807836	      1.92922759	      0.19216068	     -0.12674631	      1.56238568	      0.24162686	     -0.37617511	      2.03560257	      0.04224377	     -0.19791737	      1.59925663	      0.04038228	     -0.30009568
      0.95833000	      1.87298116	      0.88685519	     -0.24475767	      2.42426301	     -2.81328100	      2.83789836	     11.72394256	      4.99190474	     11.56621271	    -14.12799114	      2.18863369	    -12.31957918	     -5.39988249	     -3.84129251	    -25.09161476	      3.89104215	    -10.14697491	      4.32210367	     -3.45269351	      0.00000000	      0.00000000	      0.00000000	      0.00000000	      1.92608361	      0.89693094	     -0.15477043	      1.89895655	      0.87989323	     -0.35391917	      1.88399263	      0.88729455	     -0.24530329	      1.76416194	      0.93716692	     -0.21347221	      1.75645308	      0.93323599	     -0.26769242	      1.82269297	      0.83601179	     -0.17379698	      1.81645532	      0.82928993	     -0.30509375	      1.81957414	      0.83265086	     -0.23944537	      1.95842030	      0.46463094	     -0.13993583	      1.90688422	      0.45021569	     -0.23551099	      2.02601848	      0.65407951	     -0.23560941	      1.96168587	      0.69078152	     -0.16664800	      1.97108374	      0.60528856	     -0.16428164	      1.90998531	      0.05713160	     -0.14432059	      1.92586936	      0.07061136	     -0.21478526	      1.92730916	      0.17951791	     -0.07467048	      1.92177654	      0.18603339	     -0.11614309	      1.91036437	      0.47180926	     -0.19160081	      1.91180222	      0.07277520	     -0.18549372	      2.03319250	      0.03985918	     -0.16415844	      1.75925483	      0.44981815	     -0.38099569	      1.75248947	      0.43435585	     -0.27299577	      1.91951591	      0.58255838	     -0.31961780	      1.85284991	      0.64155243	     -0.36759256	      1.83583954	      0.55516916	     -0.36465225	      1.50257698	      0.12587187	     -0.35454304	      1.53808949	      0.11621906	     -0.29741653	      1.52575299	      0.25095047	     -0.40688754	      1.54884299	      0.24270080	     -0.37123961	      1.75044463	      0.45913494	     -0.31849709	      1.52125970	      0.13245703	     -0.31366442	      1.59228782	      0.03875942	     -0.37869593	      1.86823960	      1.27801559	     -0.18101245	      1.87332564	      1.27679156	     -0.29010253	      1.76584014	      1.32534322	     -0.23663143	      1.85523570	      1.28546937	     -0.24159582	      1.94144724	      1.13318782	     -0.23462018	      1.82684200	      0.84193400	     -0.23778600	      1.83105100	      0.82410200	     -0.17787700	      1.81451600	      0.81755800	     -0.29399500	      1.91823000	      0.45989500	     -0.19841600	      1.75081400	      0.46064100	     -0.30890200	      1.91741100	      0.06107300	     -0.18937400	      1.51308500	      0.12341600	     -0.31466300	      1.88168700	      0.90128700	     -0.24283000	      1.88738700	      0.90568100	     -0.14283200	      1.87598700	      0.89689300	     -0.34282700	      1.72667500	      0.92867800	     -0.20330700	      1.72325000	      0.92885300	     -0.25786100	      1.94164900	      0.46269800	     -0.14873000	      1.75868900	      0.46148700	     -0.36282300	      1.89133600	      0.45226200	     -0.24015100	      1.74416200	      0.44772200	     -0.26483200	      1.92105500	      0.06193400	     -0.15105700	      1.51571000	      0.12222200	     -0.35305500	      1.92759800	      0.07734900	     -0.22256200	      1.53146000	      0.13372900	     -0.28915700	      1.77069700	      1.34026100	     -0.23529900	      1.86887800	      1.26774200	     -0.18322400	      1.87102700	      1.26461700	     -0.29084800	      1.85524400	      1.27719000	     -0.24276300	      1.90770200	      1.10984100	     -0.23587600	      2.00483800	      0.65845300	     -0.22729300	      1.91326400	      0.60091400	     -0.28965700	      1.93991400	      0.68893500	     -0.15564400	      1.85082000	      0.65636000	     -0.34743000	      1.95133900	      0.60412500	     -0.15924400	      1.83577500	      0.56995300	     -0.34557400	      1.94081900	      0.18561300	     -0.08574600	      1.55514400	      0.24524300	     -0.41895900	      1.93018400	      0.19187900	     -0.12630600	      1.56583100	      0.24421300	     -0.37722000	      2.03591100	      0.04191700	     -0.19774700	      1.60024100	      0.04045000	     -0.30054800	    -24.06745367	    322.49402825	    -16.71166576	      1.92853259	      0.00000000	     -0.18702078	      2.47277848	     83.31336639	     -2.24748107	      1.60821289	      0.00000000	     -0.29415540	      0.00000000	     -0.34106909	      0.00000000	      0.00000000	     -0.15400783	      0.00000000	      1.82684183	      0.84193420	     -0.23778585	      1.83105063	      0.82410192	     -0.17787723	      1.81451619	      0.81755817	     -0.29399535	      1.91823030	      0.45989469	     -0.19841637	      1.75081432	      0.46064097	     -0.30890161	      1.91741121	      0.06107309	     -0.18937443	      1.51308537	      0.12341632	     -0.31466308	      1.88168705	      0.90128690	     -0.24282950	      1.88738704	      0.90568113	     -0.14283226	      1.87598705	      0.89689267	     -0.34282675	      1.72667456	      0.92867827	     -0.20330706	      1.72324967	      0.92885292	     -0.25786117	      1.94164908	      0.46269840	     -0.14873035	      1.75868940	      0.46148738	     -0.36282301	      1.89133608	      0.45226240	     -0.24015091	      1.74416208	      0.44772163	     -0.26483184	      1.92105484	      0.06193432	     -0.15105692	      1.51571035	      0.12222180	     -0.35305494	      1.92759776	      0.07734916	     -0.22256202	      1.53146017	      0.13372907	     -0.28915703	      1.77069652	      1.34026062	     -0.23529856	      1.86887836	      1.26774240	     -0.18322377	      1.87102699	      1.26461720	     -0.29084754	      1.85524404	      1.27719045	     -0.24276261	      1.90770173	      1.10984087	     -0.23587574	      2.00483775	      0.65845317	     -0.22729297	      1.91326439	      0.60091430	     -0.28965721	      1.93991375	      0.68893450	     -0.15564427	      1.85082030	      0.65636021	     -0.34743035	      1.95133877	      0.60412496	     -0.15924367	      1.83577526	      0.56995308	     -0.34557429	      1.94081855	      0.18561251	     -0.08574574	      1.55514431	      0.24524301	     -0.41895908	      1.93018413	      0.19187871	     -0.12630594	      1.56583130	      0.24421307	     -0.37722003	      2.03591084	      0.04191712	     -0.19774722	      1.60024142	      0.04044966	     -0.30054805
